<svg version="1.1" id="Layer_1" xmlns="http://www.w3.org/2000/svg" xmlns:xlink="http://www.w3.org/1999/xlink" x="0px" y="0px"
	 width="100%" viewBox="0 0 512 512" enable-background="new 0 0 512 512" xml:space="preserve">
<path fill="#FB1F02" opacity="1.000000" stroke="none" 
	d="
M238.000000,513.000000 
	C158.685898,513.000000 79.871796,513.000000 1.028848,513.000000 
	C1.028848,342.394196 1.028848,171.788406 1.028848,1.091303 
	C171.564117,1.091303 342.128326,1.091303 512.846252,1.091303 
	C512.846252,171.666565 512.846252,342.333252 512.846252,513.000000 
	C421.455048,513.000000 329.977509,513.000000 238.000000,513.000000 
M290.681122,346.433228 
	C290.361542,346.537445 290.210297,346.757477 289.645294,347.306641 
	C289.142456,347.665161 288.639587,348.023651 287.542511,348.386139 
	C286.983154,348.898987 286.423828,349.411865 285.443085,350.051666 
	C285.443085,350.051666 285.134369,350.365356 284.536163,350.367218 
	C283.971069,350.881470 283.405975,351.395721 282.428314,352.028229 
	C282.428314,352.028229 282.128479,352.335327 281.523926,352.330048 
	C280.950073,352.848328 280.376221,353.366638 279.404083,353.986542 
	C279.404083,353.986542 279.114502,354.278290 278.423309,354.296173 
	C276.209961,355.821594 273.996582,357.346985 271.391327,358.963684 
	C271.391327,358.963684 271.104828,359.246216 270.443298,359.224609 
	C269.082153,360.210388 267.721008,361.196167 266.190308,362.162842 
	C266.190308,362.162842 266.134216,362.323975 265.478485,362.324890 
	C264.271027,363.189209 263.063568,364.053528 261.437897,365.012909 
	C261.437897,365.012909 261.117493,365.297974 260.424652,365.283722 
	C258.538605,366.475800 256.652588,367.667908 254.120728,369.028198 
	C253.757263,369.277527 253.393799,369.526855 252.701126,369.596344 
	C252.385345,369.645691 252.257568,369.827301 252.165070,370.101471 
	C252.165070,370.101471 252.107895,370.248566 251.383972,370.234680 
	C242.676468,374.205688 233.968964,378.176727 224.408508,382.339508 
	C223.874207,382.571838 223.339890,382.804199 222.645264,382.805054 
	C222.645264,382.805054 222.373077,382.879272 222.373077,382.879272 
	C222.373077,382.879272 222.339706,383.159607 221.631500,383.297852 
	C221.422745,383.417328 221.214005,383.536835 220.549500,383.478790 
	C220.144592,383.709473 219.739670,383.940125 218.746689,384.242676 
	C218.200180,384.468414 217.653687,384.694153 216.898041,384.680664 
	C216.510376,384.629852 216.283279,384.777130 215.600006,385.208527 
	C215.417007,385.306488 215.234024,385.404449 214.414246,385.369232 
	C213.427994,385.750000 212.441727,386.130768 210.964340,386.525543 
	C210.636429,386.578552 210.330612,386.691437 209.463135,386.667297 
	C207.656921,387.204102 205.850708,387.740875 203.332291,388.344330 
	C202.881531,388.497803 202.430786,388.651276 201.233032,388.614624 
	C198.307205,389.251709 195.381378,389.888794 192.055405,390.456604 
	C191.775253,390.465149 191.522614,390.552887 190.655792,390.465057 
	C189.122910,390.755005 187.590012,391.044983 185.345886,391.300720 
	C184.885529,391.407776 184.425171,391.514832 183.110153,391.328735 
	C179.433182,391.683380 175.756210,392.038025 171.153107,392.270233 
	C167.414474,392.306305 163.675827,392.342377 159.251831,391.976044 
	C155.849075,391.861237 152.446304,391.746429 148.366196,391.409241 
	C147.893311,391.393555 147.420425,391.377838 146.418381,390.952850 
	C144.865204,390.893372 143.312012,390.833893 141.366714,390.587280 
	C141.081375,390.494904 140.795197,390.492310 139.963593,390.092163 
	C136.975052,389.647339 133.986511,389.202545 130.354843,388.471893 
	C129.895279,388.388977 129.435730,388.306030 128.538513,387.795135 
	C127.012970,387.512207 125.487427,387.229279 123.395004,386.745392 
	C122.999611,386.785034 122.604218,386.824677 121.713867,386.614136 
	C120.783562,386.393280 119.853249,386.172424 118.161980,385.853912 
	C116.477699,385.655853 114.793411,385.457825 112.572845,385.336487 
	C112.132187,385.050079 111.691528,384.763672 111.984734,384.954254 
	C111.920349,384.883789 112.439369,385.451782 112.990273,386.023712 
	C112.990273,386.023712 112.960907,386.041718 112.921165,386.675842 
	C113.635429,387.073547 114.349701,387.471252 115.487251,388.381439 
	C116.213554,388.881622 116.939857,389.381836 117.568077,390.156555 
	C117.568077,390.156555 117.810753,390.317535 117.810753,390.317535 
	C117.810753,390.317535 118.012276,390.107361 118.521286,390.645569 
	C120.906548,392.164276 123.291817,393.682983 125.913795,395.776855 
	C126.647202,396.088806 127.380600,396.400757 128.561646,397.121826 
	C129.282227,397.472382 130.002808,397.822937 131.056519,398.772644 
	C132.373169,399.476349 133.652451,400.263580 135.011932,400.871460 
	C165.768234,414.623993 197.356415,415.036316 229.007736,405.230042 
	C241.869812,401.245148 253.917740,394.632355 266.908569,389.060791 
	C267.576202,388.647003 268.243835,388.233246 269.608734,387.815887 
	C271.514557,386.611877 273.420380,385.407837 275.899414,384.040283 
	C276.565674,383.612549 277.231934,383.184814 278.520752,382.777222 
	C279.129333,382.258942 279.737885,381.740662 280.957306,381.011871 
	C281.292603,380.748169 281.627899,380.484467 282.275818,380.378662 
	C282.569946,380.314240 282.675446,380.137329 282.782410,379.849335 
	C282.782410,379.849335 282.866058,379.678619 283.474976,379.676025 
	C284.070862,379.169678 284.666748,378.663330 285.635468,378.065643 
	C285.635468,378.065643 285.903290,377.790619 286.567505,377.782532 
	C287.764313,376.884949 288.961151,375.987366 290.569733,374.974030 
	C290.569733,374.974030 290.875641,374.675110 291.482880,374.682343 
	C292.061920,374.165131 292.640991,373.647919 293.609314,373.034424 
	C293.609314,373.034424 293.897400,372.755463 294.555664,372.749908 
	C295.916107,371.771912 297.276550,370.793915 298.802582,369.829193 
	C298.802582,369.829193 298.855560,369.671722 299.465363,369.665344 
	C300.050964,369.153564 300.636536,368.641754 301.610779,368.025970 
	C301.610779,368.025970 301.889587,367.735870 302.552734,367.735107 
	C303.772736,366.865479 304.992706,365.995819 306.605591,365.045959 
	C306.605591,365.045959 306.899445,364.773132 307.593781,364.782043 
	C309.463104,363.561340 311.332458,362.340637 313.599854,361.044464 
	C313.599854,361.044464 313.900360,360.772766 314.624420,360.784882 
	C324.409393,356.468292 334.194366,352.151672 344.627777,347.794617 
	C345.029785,347.641968 345.431793,347.489319 346.545654,347.483521 
	C348.350616,346.903107 350.155548,346.322693 352.609253,345.746185 
	C353.017700,345.613831 353.426147,345.481476 354.474792,345.548523 
	C355.304047,345.271027 356.133301,344.993530 357.610352,344.723724 
	C358.017426,344.589722 358.424500,344.455719 359.461426,344.543976 
	C360.297760,344.288391 361.134064,344.032806 362.701233,343.805756 
	C363.413544,343.658997 364.125824,343.512238 365.565918,343.600403 
	C367.031311,343.310364 368.496704,343.020325 370.691895,342.778656 
	C371.408813,342.652863 372.125763,342.527069 373.764099,342.670959 
	C381.232605,342.567657 388.701141,342.464386 396.913757,342.590240 
	C397.947815,342.651062 398.981842,342.711884 400.633057,343.144989 
	C401.814178,343.202332 402.995300,343.259674 404.854279,343.582947 
	C405.577148,343.641876 406.300018,343.700806 407.657745,344.150482 
	C410.164948,344.531219 412.672119,344.911957 415.845551,345.590851 
	C416.567139,345.680817 417.288727,345.770782 418.559937,346.337891 
	C422.513916,347.549744 426.483032,348.714996 430.415955,349.991699 
	C432.621552,350.707703 434.363220,350.760559 435.058594,347.625977 
	C435.058594,347.625977 435.150177,347.249634 435.743225,346.961761 
	C436.436584,345.612396 437.129913,344.263000 438.096619,342.662842 
	C438.096619,342.662842 438.185516,342.302734 438.773132,342.052856 
	C439.184906,340.127350 443.923737,338.287933 438.388275,335.883118 
	C437.823212,335.631256 437.258118,335.379395 436.619385,334.765442 
	C436.395172,334.545349 436.176361,334.550598 435.438019,334.332764 
	C434.794403,334.089081 434.150818,333.845398 433.125519,333.024933 
	C429.459137,331.466675 425.918335,329.415741 422.102631,328.443420 
	C411.069550,325.631989 399.925842,323.254608 388.079865,320.461975 
	C387.039001,320.413116 385.998138,320.364288 384.258026,319.899445 
	C377.189331,320.033813 370.120667,320.168213 362.268341,320.220886 
	C361.232117,320.358582 360.195892,320.496277 359.321533,320.329865 
	C338.509094,322.356842 320.104065,328.511932 302.463776,339.412048 
	C301.527344,339.944855 300.590912,340.477631 299.729736,341.053925 
	C299.729736,341.053925 299.821350,340.943451 299.137024,341.369781 
	C298.486298,341.840851 297.835571,342.311920 296.588348,342.776672 
	C295.479401,343.563690 294.370422,344.350708 292.518463,345.507019 
	C292.303467,345.680939 292.088440,345.854889 291.757385,345.787628 
	C291.757385,345.787628 291.522552,345.917053 291.522552,345.917053 
	C291.522552,345.917053 291.625732,346.164948 291.307220,346.240173 
	C291.307220,346.240173 291.104370,346.497009 290.681122,346.433228 
M326.843506,133.500031 
	C326.856445,117.338989 326.910156,101.177849 326.870728,85.016937 
	C326.832642,69.409248 317.219238,59.755230 301.579071,59.725060 
	C273.920990,59.671711 246.262573,59.683796 218.604523,59.752663 
	C201.590042,59.795029 192.395920,69.059616 192.361557,86.132736 
	C192.316299,108.625778 192.356781,131.119003 192.361404,153.612137 
	C192.362976,161.276459 192.249557,168.943527 192.426453,176.603836 
	C192.501633,179.858566 191.402374,181.225037 188.109924,180.894897 
	C186.294998,180.712906 184.447571,180.851746 182.614807,180.851578 
	C150.124741,180.848557 117.634422,180.769394 85.144737,180.880081 
	C71.160538,180.927719 60.192459,190.153183 59.939568,203.426147 
	C59.412842,231.071182 59.625961,258.735687 59.925274,286.387970 
	C60.021931,295.318054 64.698349,301.556671 73.336571,304.995605 
	C97.698799,314.694336 122.975006,317.456757 148.897263,315.424225 
	C181.979599,312.830292 211.287048,299.843231 239.123306,282.627716 
	C254.555191,273.083771 269.843170,263.078949 286.106445,255.149170 
	C340.251007,228.748993 393.724609,229.617050 445.722443,261.555298 
	C450.090515,264.238251 454.286469,267.201385 459.321808,270.537537 
	C459.449219,267.960693 459.621582,266.050537 459.626068,264.140015 
	C459.669434,245.645752 459.719177,227.151382 459.697968,208.657135 
	C459.677185,190.511292 450.033051,180.840714 431.948120,180.829422 
	C399.124817,180.808914 366.301483,180.833710 333.478180,180.843216 
	C326.820770,180.845154 326.828918,180.852524 326.833557,173.987946 
	C326.842468,160.825302 326.841125,147.662674 326.843506,133.500031 
M223.142960,324.793579 
	C173.434647,348.627106 122.914337,351.193237 70.568512,329.262360 
	C76.681778,340.542572 84.386986,347.850037 94.672569,352.311035 
	C123.833771,364.958710 154.134583,367.377472 185.278763,362.337799 
	C213.621048,357.751617 238.902588,345.761200 262.903381,330.587250 
	C280.220032,319.639221 297.273987,308.167511 316.564026,300.823151 
	C361.705200,283.636261 405.400574,287.661743 447.761475,310.132935 
	C449.439789,311.023224 451.189789,311.778381 453.364716,312.814941 
	C454.787964,309.052399 455.781677,305.882721 457.172333,302.897949 
	C458.634735,299.759064 457.963074,297.712677 455.095581,295.781769 
	C419.355865,271.715332 380.574615,260.777283 337.505615,268.563507 
	C312.112762,273.154114 289.838196,285.033813 268.156006,298.401489 
	C253.565948,307.396698 238.607193,315.793915 223.142960,324.793579 
M326.754242,394.584473 
	C326.754242,391.512665 326.754242,388.440857 326.754242,383.878693 
	C285.249817,415.134399 241.808517,437.820801 189.475723,438.345764 
	C190.793610,439.959961 192.099350,441.154510 193.594269,442.023712 
	C201.357925,446.537567 209.627747,449.239685 218.735535,449.219727 
	C245.888016,449.160156 273.040771,449.227173 300.193359,449.191864 
	C316.214600,449.171051 326.418365,439.152710 326.718262,423.043915 
	C326.888763,413.885132 326.756470,404.720764 326.754242,394.584473 
z"/>
<path fill="#FFFDFD" opacity="1.000000" stroke="none" 
	d="
M326.843750,134.000031 
	C326.841125,147.662674 326.842468,160.825302 326.833557,173.987946 
	C326.828918,180.852524 326.820770,180.845154 333.478180,180.843216 
	C366.301483,180.833710 399.124817,180.808914 431.948120,180.829422 
	C450.033051,180.840714 459.677185,190.511292 459.697968,208.657135 
	C459.719177,227.151382 459.669434,245.645752 459.626068,264.140015 
	C459.621582,266.050537 459.449219,267.960693 459.321808,270.537537 
	C454.286469,267.201385 450.090515,264.238251 445.722443,261.555298 
	C393.724609,229.617050 340.251007,228.748993 286.106445,255.149170 
	C269.843170,263.078949 254.555191,273.083771 239.123306,282.627716 
	C211.287048,299.843231 181.979599,312.830292 148.897263,315.424225 
	C122.975006,317.456757 97.698799,314.694336 73.336571,304.995605 
	C64.698349,301.556671 60.021931,295.318054 59.925274,286.387970 
	C59.625961,258.735687 59.412842,231.071182 59.939568,203.426147 
	C60.192459,190.153183 71.160538,180.927719 85.144737,180.880081 
	C117.634422,180.769394 150.124741,180.848557 182.614807,180.851578 
	C184.447571,180.851746 186.294998,180.712906 188.109924,180.894897 
	C191.402374,181.225037 192.501633,179.858566 192.426453,176.603836 
	C192.249557,168.943527 192.362976,161.276459 192.361404,153.612137 
	C192.356781,131.119003 192.316299,108.625778 192.361557,86.132736 
	C192.395920,69.059616 201.590042,59.795029 218.604523,59.752663 
	C246.262573,59.683796 273.920990,59.671711 301.579071,59.725060 
	C317.219238,59.755230 326.832642,69.409248 326.870728,85.016937 
	C326.910156,101.177849 326.856445,117.338989 326.843750,134.000031 
z"/>
<path fill="#FEF8F7" opacity="1.000000" stroke="none" 
	d="
M223.478165,324.626099 
	C238.607193,315.793915 253.565948,307.396698 268.156006,298.401489 
	C289.838196,285.033813 312.112762,273.154114 337.505615,268.563507 
	C380.574615,260.777283 419.355865,271.715332 455.095581,295.781769 
	C457.963074,297.712677 458.634735,299.759064 457.172333,302.897949 
	C455.781677,305.882721 454.787964,309.052399 453.364716,312.814941 
	C451.189789,311.778381 449.439789,311.023224 447.761475,310.132935 
	C405.400574,287.661743 361.705200,283.636261 316.564026,300.823151 
	C297.273987,308.167511 280.220032,319.639221 262.903381,330.587250 
	C238.902588,345.761200 213.621048,357.751617 185.278763,362.337799 
	C154.134583,367.377472 123.833771,364.958710 94.672569,352.311035 
	C84.386986,347.850037 76.681778,340.542572 70.568512,329.262360 
	C122.914337,351.193237 173.434647,348.627106 223.478165,324.626099 
z"/>
<path fill="#FEF9F8" opacity="1.000000" stroke="none" 
	d="
M125.677078,395.201691 
	C123.291817,393.682983 120.906548,392.164276 118.274986,390.271729 
	C118.028687,389.897919 117.666153,389.882050 117.666153,389.882050 
	C116.939857,389.381836 116.213554,388.881622 115.230484,387.823242 
	C114.302780,386.857300 113.631844,386.449524 112.960907,386.041718 
	C112.960907,386.041718 112.990273,386.023712 113.072510,385.843872 
	C113.154747,385.664001 113.109131,385.259766 113.109131,385.259766 
	C114.793411,385.457825 116.477699,385.655853 118.841202,386.114319 
	C120.416550,386.537903 121.312683,386.701080 122.208817,386.864288 
	C122.604218,386.824677 122.999611,386.785034 123.888741,387.086609 
	C125.913704,387.692963 127.444939,387.958038 128.976166,388.223114 
	C129.435730,388.306030 129.895279,388.388977 130.930786,388.840210 
	C134.507233,389.665527 137.507721,390.122498 140.508209,390.579468 
	C140.795197,390.492310 141.081375,390.494904 141.853577,390.888062 
	C143.876129,391.246613 145.411835,391.304382 146.947540,391.362122 
	C147.420425,391.377838 147.893311,391.393555 148.983383,391.737000 
	C153.046112,392.169281 156.491653,392.273865 159.937195,392.378448 
	C163.675827,392.342377 167.414474,392.306305 171.943253,392.545868 
	C176.477203,392.421631 180.221008,392.021759 183.964813,391.621887 
	C184.425171,391.514832 184.885529,391.407776 185.979721,391.518616 
	C188.174850,391.397614 189.736160,391.058685 191.297455,390.719788 
	C191.522614,390.552887 191.775253,390.465149 192.654678,390.630615 
	C196.162643,390.138031 199.071335,389.471405 201.980026,388.804749 
	C202.430786,388.651276 202.881531,388.497803 203.953125,388.474304 
	C206.398270,388.024261 208.222595,387.444275 210.046906,386.864258 
	C210.330612,386.691437 210.636429,386.578552 211.526428,386.639252 
	C213.076019,386.336121 214.063522,385.919250 215.051025,385.502411 
	C215.234024,385.404449 215.417007,385.306488 216.148621,385.192322 
	C216.697250,385.176117 217.107178,384.919891 217.107178,384.919891 
	C217.653687,384.694153 218.200180,384.468414 219.272736,384.278625 
	C220.200928,384.095184 220.603088,383.875763 221.005249,383.656342 
	C221.214005,383.536835 221.422745,383.417328 222.070709,383.312073 
	C222.509933,383.326263 222.805588,383.036530 222.805588,383.036530 
	C223.339890,382.804199 223.874207,382.571838 225.217545,382.296875 
	C231.673523,380.030151 237.395325,377.974854 242.938690,375.517090 
	C246.143707,374.096130 249.061081,372.026367 252.107895,370.248566 
	C252.107895,370.248566 252.165070,370.101471 252.400818,370.179016 
	C252.909500,370.212524 253.040756,370.052429 253.030334,369.776215 
	C253.393799,369.526855 253.757263,369.277527 254.804550,368.980408 
	C257.364746,367.721069 259.241119,366.509521 261.117493,365.297974 
	C261.117493,365.297974 261.437897,365.012909 261.989532,365.000000 
	C263.738831,364.099365 264.936523,363.211670 266.134216,362.323975 
	C266.134216,362.323975 266.190308,362.162842 266.610168,362.198212 
	C268.388275,361.237793 269.746552,360.242004 271.104828,359.246216 
	C271.104828,359.246216 271.391327,358.963684 271.949341,358.944946 
	C274.709747,357.376923 276.912109,355.827606 279.114502,354.278290 
	C279.114502,354.278290 279.404083,353.986542 279.916687,353.969055 
	C280.995697,353.412811 281.562103,352.874084 282.128479,352.335327 
	C282.128479,352.335327 282.428314,352.028229 282.944458,351.998657 
	C284.018494,351.434479 284.576416,350.899902 285.134369,350.365356 
	C285.134369,350.365356 285.443085,350.051666 285.960754,350.013977 
	C287.031189,349.444885 287.583954,348.913513 288.136719,348.382141 
	C288.639587,348.023651 289.142456,347.665161 290.143738,347.215027 
	C290.950653,347.028412 291.104706,346.819641 291.104370,346.497009 
	C291.104370,346.497009 291.307220,346.240173 291.525818,346.235352 
	C291.744385,346.230530 291.873413,346.028839 291.873413,346.028839 
	C292.088440,345.854889 292.303467,345.680939 293.200989,345.353088 
	C294.983978,344.393799 296.084412,343.588409 297.184875,342.783020 
	C297.835571,342.311920 298.486298,341.840851 299.455109,341.172729 
	C299.773193,340.975647 299.654449,341.010406 299.654449,341.010406 
	C300.590912,340.477631 301.527344,339.944855 303.205139,339.285980 
	C305.761047,338.353699 307.616791,337.628326 309.383667,336.728485 
	C322.926270,329.831665 337.065796,324.750519 352.134735,322.389404 
	C354.509766,322.017242 356.819672,321.229553 359.159668,320.633972 
	C360.195892,320.496277 361.232117,320.358582 363.001648,320.485352 
	C370.809052,320.605042 377.883148,320.460236 384.957275,320.315430 
	C385.998138,320.364288 387.039001,320.413116 388.669006,320.859802 
	C401.213135,324.470123 413.175323,327.656403 425.117920,330.914459 
	C427.948059,331.686584 430.712524,332.699493 433.507202,333.601685 
	C434.150818,333.845398 434.794403,334.089081 435.752625,334.718323 
	C436.067200,335.103912 436.375244,335.246063 436.375244,335.246063 
	C436.375244,335.246063 436.693054,335.127563 436.693054,335.127563 
	C437.258118,335.379395 437.823212,335.631256 438.648743,336.454071 
	C438.667999,338.784271 438.426727,340.543488 438.185486,342.302734 
	C438.185516,342.302734 438.096619,342.662842 437.631470,342.875732 
	C436.494293,344.475647 435.822235,345.862640 435.150177,347.249634 
	C435.150177,347.249634 435.058594,347.625977 434.563049,347.822113 
	C432.181427,347.994110 430.262543,348.183533 428.416321,347.899933 
	C424.925629,347.363739 421.476624,346.555786 418.010315,345.860718 
	C417.288727,345.770782 416.567139,345.680817 415.326416,345.170746 
	C412.212494,344.420349 409.617676,344.090027 407.022888,343.759705 
	C406.300018,343.700806 405.577148,343.641876 404.361084,343.197266 
	C402.583923,342.798584 401.299896,342.785645 400.015900,342.772675 
	C398.981842,342.711884 397.947815,342.651062 396.309326,342.185791 
	C388.084167,341.988007 380.463409,342.194641 372.842682,342.401276 
	C372.125763,342.527069 371.408813,342.652863 370.074554,342.551849 
	C367.917511,342.671844 366.377838,343.018646 364.838135,343.365479 
	C364.125824,343.512238 363.413544,343.658997 362.137970,343.606995 
	C360.660339,343.712738 359.745972,344.017242 358.831604,344.321716 
	C358.424500,344.455719 358.017426,344.589722 357.090118,344.530670 
	C355.658112,344.674805 354.746368,345.011963 353.834595,345.349152 
	C353.426147,345.481476 353.017700,345.613831 352.035217,345.555054 
	C349.585419,346.021484 347.709595,346.679077 345.833801,347.336670 
	C345.431793,347.489319 345.029785,347.641968 344.040802,347.636597 
	C335.585083,350.529633 327.669586,353.468140 319.877716,356.704285 
	C317.697998,357.609558 315.882782,359.392456 313.900360,360.772766 
	C313.900360,360.772766 313.599854,361.044464 313.039490,361.041809 
	C310.619232,362.283813 308.759338,363.528473 306.899445,364.773132 
	C306.899445,364.773132 306.605591,365.045959 306.062531,365.044922 
	C304.309509,365.941193 303.099548,366.838531 301.889587,367.735870 
	C301.889587,367.735870 301.610779,368.025970 301.099823,368.042969 
	C300.011108,368.597229 299.433319,369.134460 298.855560,369.671722 
	C298.855560,369.671722 298.802582,369.829193 298.384705,369.803101 
	C296.610321,370.769836 295.253876,371.762665 293.897400,372.755463 
	C293.897400,372.755463 293.609314,373.034424 293.099731,373.048340 
	C292.018646,373.599854 291.447144,374.137482 290.875641,374.675110 
	C290.875641,374.675110 290.569733,374.974030 290.019653,375.010254 
	C288.280853,375.961212 287.092072,376.875916 285.903290,377.790619 
	C285.903290,377.790619 285.635468,378.065643 285.130646,378.074310 
	C284.039246,378.614868 283.452667,379.146759 282.866089,379.678650 
	C282.866058,379.678619 282.782410,379.849335 282.536591,379.796692 
	C282.032318,379.800415 281.923126,379.959320 281.963196,380.220734 
	C281.627899,380.484467 281.292603,380.748169 280.329163,381.076904 
	C279.100098,381.680328 278.499146,382.218689 277.898193,382.757050 
	C277.231934,383.184814 276.565674,383.612549 275.246246,384.087219 
	C272.699219,385.362610 270.805359,386.591034 268.911499,387.819489 
	C268.243835,388.233246 267.576202,388.647003 266.243286,389.099121 
	C256.422943,393.088379 247.422699,397.458038 238.083588,400.911224 
	C210.538773,411.096008 182.359116,413.460541 153.749664,406.038025 
	C145.921066,404.006958 138.390640,400.826508 130.723373,398.173523 
	C130.002808,397.822937 129.282227,397.472382 128.242371,396.609375 
	C127.174408,395.798523 126.425743,395.500092 125.677078,395.201691 
z"/>
<path fill="#FEF9F8" opacity="1.000000" stroke="none" 
	d="
M326.757385,395.071686 
	C326.756470,404.720764 326.888763,413.885132 326.718262,423.043915 
	C326.418365,439.152710 316.214600,449.171051 300.193359,449.191864 
	C273.040771,449.227173 245.888016,449.160156 218.735535,449.219727 
	C209.627747,449.239685 201.357925,446.537567 193.594269,442.023712 
	C192.099350,441.154510 190.793610,439.959961 189.475723,438.345764 
	C241.808517,437.820801 285.249817,415.134399 326.754242,383.878693 
	C326.754242,388.440857 326.754242,391.512665 326.757385,395.071686 
z"/>
<path fill="#F6C0B9" opacity="1.000000" stroke="none" 
	d="
M130.889954,398.473083 
	C138.390640,400.826508 145.921066,404.006958 153.749664,406.038025 
	C182.359116,413.460541 210.538773,411.096008 238.083588,400.911224 
	C247.422699,397.458038 256.422943,393.088379 265.957092,389.176361 
	C253.917740,394.632355 241.869812,401.245148 229.007736,405.230042 
	C197.356415,415.036316 165.768234,414.623993 135.011932,400.871460 
	C133.652451,400.263580 132.373169,399.476349 130.889954,398.473083 
z"/>
<path fill="#F6C0B9" opacity="1.000000" stroke="none" 
	d="
M358.740601,320.481934 
	C356.819672,321.229553 354.509766,322.017242 352.134735,322.389404 
	C337.065796,324.750519 322.926270,329.831665 309.383667,336.728485 
	C307.616791,337.628326 305.761047,338.353699 303.581482,339.138763 
	C320.104065,328.511932 338.509094,322.356842 358.740601,320.481934 
z"/>
<path fill="#F6C0B9" opacity="1.000000" stroke="none" 
	d="
M433.316345,333.313293 
	C430.712524,332.699493 427.948059,331.686584 425.117920,330.914459 
	C413.175323,327.656403 401.213135,324.470123 389.041840,320.982208 
	C399.925842,323.254608 411.069550,325.631989 422.102631,328.443420 
	C425.918335,329.415741 429.459137,331.466675 433.316345,333.313293 
z"/>
<path fill="#F6C0B9" opacity="1.000000" stroke="none" 
	d="
M314.262390,360.778809 
	C315.882782,359.392456 317.697998,357.609558 319.877716,356.704285 
	C327.669586,353.468140 335.585083,350.529633 343.716553,347.656799 
	C334.194366,352.151672 324.409393,356.468292 314.262390,360.778809 
z"/>
<path fill="#F6C0B9" opacity="1.000000" stroke="none" 
	d="
M251.745941,370.241638 
	C249.061081,372.026367 246.143707,374.096130 242.938690,375.517090 
	C237.395325,377.974854 231.673523,380.030151 225.644028,382.200989 
	C233.968964,378.176727 242.676468,374.205688 251.745941,370.241638 
z"/>
<path fill="#F6C0B9" opacity="1.000000" stroke="none" 
	d="
M373.303406,342.536133 
	C380.463409,342.194641 388.084167,341.988007 395.937256,342.071228 
	C388.701141,342.464386 381.232605,342.567657 373.303406,342.536133 
z"/>
<path fill="#F6C0B9" opacity="1.000000" stroke="none" 
	d="
M384.607666,320.107452 
	C377.883148,320.460236 370.809052,320.605042 363.393433,320.526215 
	C370.120667,320.168213 377.189331,320.033813 384.607666,320.107452 
z"/>
<path fill="#F6C0B9" opacity="1.000000" stroke="none" 
	d="
M418.285126,346.099304 
	C421.476624,346.555786 424.925629,347.363739 428.416321,347.899933 
	C430.262543,348.183533 432.181427,347.994110 434.424011,347.956940 
	C434.363220,350.760559 432.621552,350.707703 430.415955,349.991699 
	C426.483032,348.714996 422.513916,347.549744 418.285126,346.099304 
z"/>
<path fill="#F6C0B9" opacity="1.000000" stroke="none" 
	d="
M183.537476,391.475311 
	C180.221008,392.021759 176.477203,392.421631 172.406311,392.607086 
	C175.756210,392.038025 179.433182,391.683380 183.537476,391.475311 
z"/>
<path fill="#F6C0B9" opacity="1.000000" stroke="none" 
	d="
M159.594513,392.177246 
	C156.491653,392.273865 153.046112,392.169281 149.322052,391.848175 
	C152.446304,391.746429 155.849075,391.861237 159.594513,392.177246 
z"/>
<path fill="#F6C0B9" opacity="1.000000" stroke="none" 
	d="
M140.235901,390.335815 
	C137.507721,390.122498 134.507233,389.665527 131.252350,388.983154 
	C133.986511,389.202545 136.975052,389.647339 140.235901,390.335815 
z"/>
<path fill="#F6C0B9" opacity="1.000000" stroke="none" 
	d="
M407.340332,343.955078 
	C409.617676,344.090027 412.212494,344.420349 414.993286,345.021667 
	C412.672119,344.911957 410.164948,344.531219 407.340332,343.955078 
z"/>
<path fill="#F6C0B9" opacity="1.000000" stroke="none" 
	d="
M278.768921,354.287231 
	C276.912109,355.827606 274.709747,357.376923 272.145264,358.899292 
	C273.996582,357.346985 276.209961,355.821594 278.768921,354.287231 
z"/>
<path fill="#F6C0B9" opacity="1.000000" stroke="none" 
	d="
M201.606537,388.709686 
	C199.071335,389.471405 196.162643,390.138031 192.854752,390.665253 
	C195.381378,389.888794 198.307205,389.251709 201.606537,388.709686 
z"/>
<path fill="#F6C0B9" opacity="1.000000" stroke="none" 
	d="
M438.479309,342.177795 
	C438.426727,340.543488 438.667999,338.784271 438.898865,336.639557 
	C443.923737,338.287933 439.184906,340.127350 438.479309,342.177795 
z"/>
<path fill="#F6C0B9" opacity="1.000000" stroke="none" 
	d="
M269.260132,387.817688 
	C270.805359,386.591034 272.699219,385.362610 274.959656,384.168976 
	C273.420380,385.407837 271.514557,386.611877 269.260132,387.817688 
z"/>
<path fill="#F6C0B9" opacity="1.000000" stroke="none" 
	d="
M260.771057,365.290833 
	C259.241119,366.509521 257.364746,367.721069 255.127457,368.896301 
	C256.652588,367.667908 258.538605,366.475800 260.771057,365.290833 
z"/>
<path fill="#F6C0B9" opacity="1.000000" stroke="none" 
	d="
M307.246613,364.777588 
	C308.759338,363.528473 310.619232,362.283813 312.840454,361.079529 
	C311.332458,362.340637 309.463104,363.561340 307.246613,364.777588 
z"/>
<path fill="#F6C0B9" opacity="1.000000" stroke="none" 
	d="
M346.189728,347.410095 
	C347.709595,346.679077 349.585419,346.021484 351.710876,345.553101 
	C350.155548,346.322693 348.350616,346.903107 346.189728,347.410095 
z"/>
<path fill="#F6C0B9" opacity="1.000000" stroke="none" 
	d="
M209.755035,386.765778 
	C208.222595,387.444275 206.398270,388.024261 204.309219,388.440979 
	C205.850708,387.740875 207.656921,387.204102 209.755035,386.765778 
z"/>
<path fill="#F6C0B9" opacity="1.000000" stroke="none" 
	d="
M365.202026,343.482941 
	C366.377838,343.018646 367.917511,342.671844 369.709656,342.527649 
	C368.496704,343.020325 367.031311,343.310364 365.202026,343.482941 
z"/>
<path fill="#F6C0B9" opacity="1.000000" stroke="none" 
	d="
M128.757339,388.009125 
	C127.444939,387.958038 125.913704,387.692963 124.172180,387.187103 
	C125.487427,387.229279 127.012970,387.512207 128.757339,388.009125 
z"/>
<path fill="#F6C0B9" opacity="1.000000" stroke="none" 
	d="
M190.976624,390.592407 
	C189.736160,391.058685 188.174850,391.397614 186.335342,391.535736 
	C187.590012,391.044983 189.122910,390.755005 190.976624,390.592407 
z"/>
<path fill="#F6C0B9" opacity="1.000000" stroke="none" 
	d="
M146.682953,391.157471 
	C145.411835,391.304382 143.876129,391.246613 142.049622,390.981628 
	C143.312012,390.833893 144.865204,390.893372 146.682953,391.157471 
z"/>
<path fill="#F6C0B9" opacity="1.000000" stroke="none" 
	d="
M270.774048,359.235413 
	C269.746552,360.242004 268.388275,361.237793 266.694946,362.207764 
	C267.721008,361.196167 269.082153,360.210388 270.774048,359.235413 
z"/>
<path fill="#F6C0B9" opacity="1.000000" stroke="none" 
	d="
M294.226532,372.752686 
	C295.253876,371.762665 296.610321,370.769836 298.301880,369.796478 
	C297.276550,370.793915 295.916107,371.771912 294.226532,372.752686 
z"/>
<path fill="#F6C0B9" opacity="1.000000" stroke="none" 
	d="
M435.446716,347.105713 
	C435.822235,345.862640 436.494293,344.475647 437.494812,343.001129 
	C437.129913,344.263000 436.436584,345.612396 435.446716,347.105713 
z"/>
<path fill="#F6C0B9" opacity="1.000000" stroke="none" 
	d="
M286.235413,377.786560 
	C287.092072,376.875916 288.280853,375.961212 289.813782,375.068146 
	C288.961151,375.987366 287.764313,376.884949 286.235413,377.786560 
z"/>
<path fill="#F6C0B9" opacity="1.000000" stroke="none" 
	d="
M400.324463,342.958832 
	C401.299896,342.785645 402.583923,342.798584 404.022156,343.064270 
	C402.995300,343.259674 401.814178,343.202332 400.324463,342.958832 
z"/>
<path fill="#F6C0B9" opacity="1.000000" stroke="none" 
	d="
M302.221161,367.735474 
	C303.099548,366.838531 304.309509,365.941193 305.866089,365.085022 
	C304.992706,365.995819 303.772736,366.865479 302.221161,367.735474 
z"/>
<path fill="#F6C0B9" opacity="1.000000" stroke="none" 
	d="
M265.806335,362.324432 
	C264.936523,363.211670 263.738831,364.099365 262.198608,364.952454 
	C263.063568,364.053528 264.271027,363.189209 265.806335,362.324432 
z"/>
<path fill="#F6C0B9" opacity="1.000000" stroke="none" 
	d="
M112.840988,385.298126 
	C113.109131,385.259766 113.154747,385.664001 113.056564,385.841888 
	C112.439369,385.451782 111.920349,384.883789 111.984734,384.954254 
	C111.691528,384.763672 112.132187,385.050079 112.840988,385.298126 
z"/>
<path fill="#F6C0B9" opacity="1.000000" stroke="none" 
	d="
M296.886597,342.779846 
	C296.084412,343.588409 294.983978,344.393799 293.572510,345.168457 
	C294.370422,344.350708 295.479401,343.563690 296.886597,342.779846 
z"/>
<path fill="#F6C0B9" opacity="1.000000" stroke="none" 
	d="
M354.154694,345.448853 
	C354.746368,345.011963 355.658112,344.674805 356.766235,344.526825 
	C356.133301,344.993530 355.304047,345.271027 354.154694,345.448853 
z"/>
<path fill="#F6C0B9" opacity="1.000000" stroke="none" 
	d="
M359.146515,344.432861 
	C359.745972,344.017242 360.660339,343.712738 361.772552,343.592743 
	C361.134064,344.032806 360.297760,344.288391 359.146515,344.432861 
z"/>
<path fill="#F6C0B9" opacity="1.000000" stroke="none" 
	d="
M214.732635,385.435822 
	C214.063522,385.919250 213.076019,386.336121 211.771988,386.632263 
	C212.441727,386.130768 213.427994,385.750000 214.732635,385.435822 
z"/>
<path fill="#F6C0B9" opacity="1.000000" stroke="none" 
	d="
M121.961342,386.739197 
	C121.312683,386.701080 120.416550,386.537903 119.221680,386.163147 
	C119.853249,386.172424 120.783562,386.393280 121.961342,386.739197 
z"/>
<path fill="#F6C0B9" opacity="1.000000" stroke="none" 
	d="
M112.941040,386.358765 
	C113.631844,386.449524 114.302780,386.857300 115.018845,387.567017 
	C114.349701,387.471252 113.635429,387.073547 112.941040,386.358765 
z"/>
<path fill="#F6C0B9" opacity="1.000000" stroke="none" 
	d="
M284.835266,350.366272 
	C284.576416,350.899902 284.018494,351.434479 283.150757,351.939514 
	C283.405975,351.395721 283.971069,350.881470 284.835266,350.366272 
z"/>
<path fill="#F6C0B9" opacity="1.000000" stroke="none" 
	d="
M125.795433,395.489258 
	C126.425743,395.500092 127.174408,395.798523 128.018539,396.404846 
	C127.380600,396.400757 126.647202,396.088806 125.795433,395.489258 
z"/>
<path fill="#F6C0B9" opacity="1.000000" stroke="none" 
	d="
M278.209473,382.767151 
	C278.499146,382.218689 279.100098,381.680328 280.023743,381.182190 
	C279.737885,381.740662 279.129333,382.258942 278.209473,382.767151 
z"/>
<path fill="#F6C0B9" opacity="1.000000" stroke="none" 
	d="
M283.170532,379.677338 
	C283.452667,379.146759 284.039246,378.614868 284.944214,378.119965 
	C284.666748,378.663330 284.070862,379.169678 283.170532,379.677338 
z"/>
<path fill="#F6C0B9" opacity="1.000000" stroke="none" 
	d="
M291.179260,374.678711 
	C291.447144,374.137482 292.018646,373.599854 292.905090,373.096497 
	C292.640991,373.647919 292.061920,374.165131 291.179260,374.678711 
z"/>
<path fill="#F6C0B9" opacity="1.000000" stroke="none" 
	d="
M299.160461,369.668518 
	C299.433319,369.134460 300.011108,368.597229 300.905518,368.094971 
	C300.636536,368.641754 300.050964,369.153564 299.160461,369.668518 
z"/>
<path fill="#F6C0B9" opacity="1.000000" stroke="none" 
	d="
M281.826202,352.332703 
	C281.562103,352.874084 280.995697,353.412811 280.115845,353.918274 
	C280.376221,353.366638 280.950073,352.848328 281.826202,352.332703 
z"/>
<path fill="#F6C0B9" opacity="1.000000" stroke="none" 
	d="
M287.839600,348.384155 
	C287.583954,348.913513 287.031189,349.444885 286.171448,349.950500 
	C286.423828,349.411865 286.983154,348.898987 287.839600,348.384155 
z"/>
<path fill="#F6C0B9" opacity="1.000000" stroke="none" 
	d="
M220.777374,383.567566 
	C220.603088,383.875763 220.200928,384.095184 219.566757,384.242676 
	C219.739670,383.940125 220.144592,383.709473 220.777374,383.567566 
z"/>
<path fill="#F6C0B9" opacity="1.000000" stroke="none" 
	d="
M217.002609,384.800293 
	C217.107178,384.919891 216.697250,385.176117 216.457001,385.149323 
	C216.283279,384.777130 216.510376,384.629852 217.002609,384.800293 
z"/>
<path fill="#F6C0B9" opacity="1.000000" stroke="none" 
	d="
M222.725433,382.920776 
	C222.805588,383.036530 222.509933,383.326263 222.424820,383.242920 
	C222.339706,383.159607 222.373077,382.879272 222.373077,382.879272 
	C222.373077,382.879272 222.645264,382.805054 222.725433,382.920776 
z"/>
<path fill="#F6C0B9" opacity="1.000000" stroke="none" 
	d="
M282.119507,380.299683 
	C281.923126,379.959320 282.032318,379.800415 282.441528,379.795959 
	C282.675446,380.137329 282.569946,380.314240 282.119507,380.299683 
z"/>
<path fill="#F6C0B9" opacity="1.000000" stroke="none" 
	d="
M252.865723,369.686279 
	C253.040756,370.052429 252.909500,370.212524 252.477188,370.198853 
	C252.257568,369.827301 252.385345,369.645691 252.865723,369.686279 
z"/>
<path fill="#F6C0B9" opacity="1.000000" stroke="none" 
	d="
M291.815399,345.908234 
	C291.873413,346.028839 291.744385,346.230530 291.685059,346.197754 
	C291.625732,346.164948 291.522552,345.917053 291.522552,345.917053 
	C291.522552,345.917053 291.757385,345.787628 291.815399,345.908234 
z"/>
<path fill="#F6C0B9" opacity="1.000000" stroke="none" 
	d="
M117.617111,390.019287 
	C117.666153,389.882050 118.028687,389.897919 118.020477,390.002625 
	C118.012276,390.107361 117.810753,390.317535 117.810753,390.317535 
	C117.810753,390.317535 117.568077,390.156555 117.617111,390.019287 
z"/>
<path fill="#F6C0B9" opacity="1.000000" stroke="none" 
	d="
M290.892761,346.465118 
	C291.104706,346.819641 290.950653,347.028412 290.434753,347.108337 
	C290.210297,346.757477 290.361542,346.537445 290.892761,346.465118 
z"/>
<path fill="#F6C0B9" opacity="1.000000" stroke="none" 
	d="
M299.692078,341.032166 
	C299.654449,341.010406 299.773193,340.975647 299.797272,340.959534 
	C299.821350,340.943451 299.729736,341.053925 299.692078,341.032166 
z"/>
<path fill="#F6C0B9" opacity="1.000000" stroke="none" 
	d="
M436.656219,334.946503 
	C436.693054,335.127563 436.375244,335.246063 436.375244,335.246063 
	C436.375244,335.246063 436.067200,335.103912 436.015076,334.942535 
	C436.176361,334.550598 436.395172,334.545349 436.656219,334.946503 
z"/>
</svg>
